<svg width="#currentwidth" height="#currentheight" viewBox="0 0 185 168" fill="none" xmlns="http://www.w3.org/2000/svg">
<path d="M159.149 95C162.882 95 165.749 95.4 167.749 96.2C169.749 97 171.482 97.8667 172.949 98.8C173.749 99.2667 174.382 99.6333 174.849 99.9C175.382 100.1 175.882 100.2 176.349 100.2C177.016 100.2 177.482 99.8333 177.749 99.1C178.082 98.3667 178.349 97.2667 178.549 95.8H180.849V106.9V117.8H178.049C177.849 114.4 177.082 111.133 175.749 108C174.482 104.867 172.649 102.3 170.249 100.3C167.916 98.2333 164.916 97.2 161.249 97.2C157.982 97.2 155.249 98.1667 153.049 100.1C150.916 102.033 149.849 104.633 149.849 107.9C149.849 110.7 150.549 113.067 151.949 115C153.349 116.867 155.316 118.7 157.849 120.5C160.449 122.233 163.516 124.233 167.049 126.5C170.316 128.633 173.249 130.767 175.849 132.9C178.449 134.967 180.48 136.667 181.946 139.2C183.48 141.733 184.246 144.833 184.246 148.5C184.246 152.833 183.18 156.433 181.046 159.3C178.913 162.167 176.046 164.3 172.446 165.7C168.846 167.1 164.913 167.8 160.646 167.8C156.713 167.8 153.58 167.4 151.246 166.6C148.98 165.8 147.013 164.967 145.346 164.1C143.88 163.167 142.746 162.7 141.946 162.7C141.28 162.7 140.78 163.067 140.446 163.8C140.18 164.533 140.247 165.834 140.047 167.301L137.723 167.263C137.856 165.729 137.723 163.728 137.723 161.662C137.789 159.595 137.723 156.928 137.723 153.662C137.789 150.328 137.723 146.128 137.723 141.062L140.146 141.1C140.413 145.367 141.146 149.367 142.346 153.1C143.613 156.767 145.513 159.733 148.046 162C150.646 164.267 154.08 165.4 158.346 165.4C160.68 165.4 162.78 165 164.646 164.2C166.58 163.333 168.113 162.033 169.246 160.3C170.38 158.5 170.946 156.233 170.946 153.5C170.946 150.767 170.313 148.367 169.046 146.3C167.78 144.233 166.013 142.3 163.746 140.5C161.48 138.7 158.816 137.467 155.749 135.6C152.616 133.6 149.682 131.567 146.949 129.5C144.216 127.433 142.016 125.1 140.349 122.5C138.749 119.833 137.949 116.633 137.949 112.9C137.949 108.767 138.446 105 140.446 102.4C141.946 98.8 144.469 97.5154 147.669 96.2487C150.935 94.982 155.482 95 159.149 95Z" fill="#currentColor"/>
<path fill-rule="evenodd" clip-rule="evenodd" d="M147.8 98.2V96.2C147.321 96.232 146.765 96.218 146.133 96.2021C145.446 96.1848 144.668 96.1653 143.8 96.2C142.737 96.2443 141.659 96.2298 140.567 96.215C140.015 96.2075 139.459 96.2 138.9 96.2C138.34 96.2 137.762 96.207 137.167 96.2142C135.921 96.2292 134.599 96.2451 133.2 96.2C132.162 96.1654 131.224 96.1847 130.383 96.2019C129.604 96.2179 128.91 96.2321 128.3 96.2V98.2C131.167 98.4 133.267 98.9 134.6 99.7C135.933 100.5 136.8 101.767 137.2 103.5C137.6 105.233 138 107.733 138 111L140.1 110.2C140.1 107.2 140.267 104.9 140.6 103.3C141 101.633 141.767 100.433 142.9 99.7C144.033 98.9 145.667 98.4 147.8 98.2ZM140.1 146.1V167.3C139.706 167.256 139.284 167.27 138.833 167.285C138.597 167.292 138.352 167.3 138.1 167.3C137.885 167.3 137.663 167.293 137.433 167.286C136.953 167.271 136.442 167.255 135.9 167.3L93 109L90.7461 105.9L83 96.2C83.5155 96.2322 84.0933 96.2178 84.7333 96.2017C85.4177 96.1845 86.1732 96.1656 87 96.2C88.1149 96.2446 89.2149 96.2296 90.3 96.2147C90.837 96.2073 91.3703 96.2 91.9 96.2C92.4149 96.2 92.926 96.2075 93.4333 96.215C94.4369 96.2298 95.4258 96.2443 96.4 96.2C97.149 96.166 97.8546 96.1841 98.5167 96.2011C99.151 96.2174 99.7455 96.2327 100.3 96.2L137.8 146.1H140.1Z" fill="#currentColor"/>
<path d="M101.454 96.2C101.188 98.9333 101.588 101.6 101.454 104.2C101.388 106.733 101.454 108.667 101.454 110C101.454 111.267 101.388 112.5 101.454 113.7C101.521 114.833 101.388 115.8 101.454 116.6L99.5 115.9C98.9667 111.3 97.3543 108.4 96.1543 105.8C94.9543 103.133 93.321 101.267 91.2543 100.2C89.2543 99.0667 86.621 98.5 83.3543 98.5H77.8543C75.8543 98.5 74.321 98.6667 73.2543 99C72.1876 99.3333 71.4543 100.033 71.0543 101.1C70.721 102.167 70.5543 103.8 70.5543 106V157.2C70.5543 159.333 70.721 160.967 71.0543 162.1C71.4543 163.167 72.1876 163.867 73.2543 164.2C74.321 164.533 75.8543 164.7 77.8543 164.7H83.5543C86.9543 164.7 89.7876 164.067 92.0543 162.8C94.3876 161.533 96.2543 159.467 97.6543 156.6C99.0543 153.667 100.088 149.667 100.754 144.6H103.454C103.254 146.667 103.454 149.333 103.454 152.6C103.454 154 103.388 156.033 103.454 158.7C103.588 161.367 103.188 164.133 103.454 167C100.054 166.867 96.221 167 91.9543 167C87.6876 166.933 83.8876 167 80.5543 167C79.021 167 76.9876 167 74.4543 167C71.9876 167 69.2876 166.933 66.3543 167C63.4876 167 60.5543 166.933 57.5543 167C54.621 167 51.821 166.933 49.1543 167V165C51.3543 164.867 52.9876 164.6 54.0543 164.2C55.1876 163.8 55.921 163 56.2543 161.8C56.6543 160.6 56.8543 158.8 56.8543 156.4V106.8C56.8543 104.333 56.6543 102.533 56.2543 101.4C55.921 100.2 55.1876 99.4 54.0543 99C52.9876 98.5333 51.3543 98.2667 49.1543 98.2V96.2C51.821 96.2667 54.621 96.1333 57.5543 96.2C60.5543 96.2 63.4876 96.1333 66.3543 96.2C69.2876 96.2 71.9876 96.2 74.4543 96.2C76.9876 96.2 79.021 96.2 80.5543 96.2C83.621 96.2 87.0876 96.2 90.9543 96.2C94.8876 96.1333 98.3876 96.3333 101.454 96.2ZM85.3543 130.4C85.3543 130.4 85.3543 130.733 85.3543 131.4C85.3543 132.067 85.3543 132.4 85.3543 132.4H67.5543C67.5543 132.4 67.5543 132.067 67.5543 131.4C67.5543 130.733 67.5543 130.4 67.5543 130.4H85.3543ZM88.5543 117.2C88.2876 121 88.5543 123.9 88.5543 125.9C88.621 127.9 88.5543 129.733 88.5543 131.4C88.5543 133.067 88.4876 134.9 88.5543 136.9C88.621 138.9 88.2876 141.8 88.5543 145.6H86.2543C85.921 143.333 85.3876 141.2 84.6543 139.2C83.9876 137.133 82.8876 135.5 81.3543 134.3C79.8876 133.033 77.7543 132.4 74.9543 132.4V130.4C77.021 130.4 78.6876 129.967 79.9543 129.1C81.2876 128.233 82.3543 127.133 83.1543 125.8C83.9543 124.4 84.5543 122.967 84.9543 121.5C85.421 119.967 85.7543 118.533 85.9543 117.2H88.5543Z" fill="#currentColor"/>
<path d="M34.4004 96.2V98.2C32.1337 98.2667 30.4004 98.5334 29.2004 99C28.0671 99.4 27.3004 100.2 26.9004 101.4C26.5004 102.533 26.3004 104.333 26.3004 106.8V157.2C26.3004 159.333 26.4671 160.967 26.8004 162.1C27.2004 163.167 27.9004 163.867 28.9004 164.2C29.9004 164.533 31.3337 164.7 33.2004 164.7H38.9004C41.5004 164.7 43.7671 164.233 45.7004 163.3C47.7004 162.367 49.4337 161 50.9004 159.2C52.3671 157.4 53.5671 155.2 54.5004 152.6C55.4337 149.933 56.4454 146.695 56.8454 143.362H59.1454C58.9454 145.562 58.5004 148.667 58.5004 152.2C58.5004 153.667 58.5337 155.767 58.6004 158.5C58.7337 161.233 58.9337 164.067 59.2004 167C55.8004 166.867 51.9671 167 47.7004 167C43.4337 166.933 39.6337 167 36.3004 167C34.7004 167 32.6671 167 30.2004 167C27.7337 167 25.0337 166.933 22.1004 167C19.2337 167 16.3004 166.933 13.3004 167C10.3671 167 7.56706 166.933 4.90039 167V165C7.10039 164.867 8.73372 164.6 9.80039 164.2C10.9337 163.8 11.6671 163 12.0004 161.8C12.4004 160.6 12.6004 158.8 12.6004 156.4V106.8C12.6004 104.333 12.4004 102.533 12.0004 101.4C11.6671 100.2 10.9337 99.4 9.80039 99C8.73372 98.5334 7.10039 98.2667 4.90039 98.2V96.2C6.56706 96.2667 8.70039 96.1334 11.3004 96.2C13.9004 96.2667 16.7004 96.2 19.7004 96.2C22.4337 96.2 25.1337 96.2667 27.8004 96.2C30.4671 96.1334 32.6671 96.2667 34.4004 96.2Z" fill="#currentColor"/>
<path d="M166.9 1.19997V10.2V16.8V21.1V24.6H164.2C163.267 19.2666 162.133 15.1 160.8 12.1C159.467 9.0333 157.7 6.8333 155.5 5.49997C153.367 4.16663 150.533 3.49997 147 3.49997H143.8V60.5C143.8 63.2333 144.033 65.2666 144.5 66.6C145.033 67.9333 146.067 68.8333 147.6 69.3C149.133 69.7 151.367 69.9333 154.3 70V72C152.3 71.8666 149.7 72 146.5 72C143.3 71.9333 140.033 72 136.7 72C133.233 72 129.967 71.9333 126.9 72C123.9 72 121.467 71.8666 119.6 72V70C122.467 69.9333 124.667 69.7 126.2 69.3C127.733 68.8333 128.767 67.9333 129.3 66.6C129.833 65.2666 130.1 63.2333 130.1 60.5V3.49997H126.8C123.333 3.49997 120.5 4.16663 118.3 5.49997C116.1 6.8333 114.333 9.0333 113 12.1C111.667 15.1 110.567 19.2666 109.7 24.6H107.4C107.533 23.6 107.6 22.4333 107.6 21.1C107.667 19.7666 107.7 18.3333 107.7 16.8C107.7 15.2666 107.633 13.0666 107.5 10.2C107.433 7.26663 107.267 4.26663 107 1.19997C109.933 1.26664 113.167 1.1333 116.7 1.19997C120.233 1.26664 123.767 1.19997 127.3 1.19997C130.833 1.19997 134.067 1.19997 137 1.19997C139.867 1.19997 143.067 1.19997 146.6 1.19997C150.133 1.19997 153.667 1.26664 157.2 1.19997C160.733 1.1333 163.967 1.26664 166.9 1.19997Z" fill="#currentColor"/>
<path d="M79.3746 36.7C80.6264 36.7532 81.7931 36.8118 82.8746 36.8757C84.5003 36.9718 85.9336 37.0799 87.1746 37.2C89.3079 37.3333 91.1079 37.4666 92.5746 37.6C93.9073 37.7159 95.1141 37.8569 96.195 38.0232C96.3578 38.0482 96.5176 38.0738 96.6746 38.1C102.208 38.6333 106.275 39.9333 108.875 42C111.541 44 113.308 47.0666 114.175 51.2L116.475 61.5C117.075 64.2333 117.708 66.2 118.375 67.4C119.108 68.5333 123.867 69.2667 125.2 69.2C126.133 69.2 126.933 68.9667 127.6 68.5C128.267 67.9667 128.933 67.2667 129.6 66.4L131 67.6C129.333 69.6667 127.792 70 125.925 71C124.059 71.9333 117.967 72.2 115.1 72.2C111.9 72.2 109.2 71.4667 107 70C104.8 68.4667 103.075 66.8 102.275 62.6L100.375 52.6C99.8413 49.8 99.2079 47.3333 98.4746 45.2C97.8079 43.0666 96.8746 41.4 95.6746 40.2C94.4746 39 92.7079 38.4 90.3746 38.4H82.8746H79.5746L79.3746 36.7Z" fill="#currentColor"/>
<path d="M67.8746 1.19998C65.2746 1.13331 63.1413 1.26664 61.4746 1.19998V3.19998C63.6746 3.26664 65.3079 3.53331 66.3746 3.99998C67.5079 4.39998 68.2413 5.19998 68.5746 6.39998C68.9746 7.53331 69.1746 9.33331 69.1746 11.8V61.4C69.1746 63.8 68.9746 65.6 68.5746 66.8C68.2413 68 67.5079 68.8 66.3746 69.2C65.3079 69.6 63.6746 69.8667 61.4746 70V72H90.5746V70C88.4413 69.8667 86.8079 69.6 85.6746 69.2C84.6079 68.8 83.8746 68 83.4746 66.8C83.0746 65.6 82.8746 63.8 82.8746 61.4V38.4H79.5746H79.3746V36.7V36.4H82.8746V11.8C82.8746 8.33331 83.2746 6.03331 84.0746 4.89998C84.9413 3.76664 86.7413 3.19998 89.4746 3.19998C94.5413 3.19998 98.1079 4.66664 100.175 7.59997C102.241 10.4666 103.275 14.5333 103.275 19.8C103.275 22.8666 102.875 25.6666 102.075 28.2C101.341 30.6666 99.8413 32.6666 97.5746 34.2C95.3746 35.6666 92.1746 36.4 87.9746 36.4H82.8746V36.8757C84.5003 36.9718 85.9336 37.0799 87.1746 37.2C89.3079 37.3333 91.1079 37.4666 92.5746 37.6C93.9073 37.7159 95.1141 37.8569 96.195 38.0232C98.7923 37.7254 101.086 37.2509 103.075 36.6C106.808 35.3333 109.741 33.7333 111.875 31.8C114.008 29.8666 115.508 27.7666 116.375 25.5C117.241 23.1666 117.675 20.9 117.675 18.7C117.675 15.1666 116.708 12.1 114.775 9.49998C112.841 6.89998 112.933 3.8 109 2.39999C105.133 0.93333 110 1.19998 104 1.19998C102.8 1.19998 87.908 1.13331 84.9746 1.19998C82.0413 1.26664 78.9413 1.19998 75.6746 1.19998C73.0746 1.19998 70.4746 1.26664 67.8746 1.19998Z" fill="#currentColor"/>
<path d="M79.3746 36.4V36.7C80.6264 36.7532 81.7931 36.8118 82.8746 36.8757V36.4H79.3746Z" fill="#currentColor"/>
<path d="M79.3746 36.7V38.4H79.5746L79.3746 36.7Z" fill="#currentColor"/>
<path d="M36.6 0.899994L60.9 63.6C61.9 66 62.9667 67.6667 64.1 68.6C65.3 69.4667 66.4 69.9333 67.4 70V72C65.6667 71.8667 63.5667 72 61.1 72C58.7 71.9333 55.8333 72 53.3 72C50.3667 72 48.0333 71.9333 45.5 72C42.9667 72 40.9 71.8667 39.3 72V70C42.7 69.8667 44.8667 69.3 45.8 68.3C46.7333 67.2333 46.5333 65 45.2 61.6L27.6 14.1L29.4 11.9L13.4 53.4C12.1333 56.7333 11.3667 59.4667 11.1 61.6C10.8333 63.7333 11 65.4 11.6 66.6C12.2 67.8 13.2 68.6667 14.6 69.2C16 69.6667 17.7333 69.9333 19.8 70V72C17.6667 71.8667 15.6 71.8 13.6 71.8C11.6 71.7333 9.6 71.7 7.6 71.7C6.13333 71.7 4.73333 71.7333 3.4 71.8C2.13333 71.8 1 71.8667 0 72V70C1.46667 69.6667 2.9 68.8 4.3 67.4C5.76667 66 7.16667 63.5667 8.5 60.1L31.4 0.899994C32.2 0.96666 33.0667 0.899994 34 0.899994C34.9333 0.899994 35.8 0.96666 36.6 0.899994ZM45.3 43.2V45.2H15.5L16.5 43.2H45.3Z" fill="#currentColor"/>
</svg>
