<svg width="#currentwidth" height="#currentheight" viewBox="0 0 289 341" fill="none" xmlns="http://www.w3.org/2000/svg">
<path d="M42.7891 42.7735C85.5244 0.153234 148.291 -11.0885 204.063 14.0199C203.348 14.2193 202.297 13.3753 202.2 14.697C202.149 15.4205 202.042 16.835 202.195 17.4286C202.316 17.9063 203.046 17.5353 203.139 17.9619C203.371 19.0332 202.274 18.4442 202.172 18.9498C201.651 21.5144 206.034 40.0141 207.075 43.7057C215.794 74.639 236.825 104.867 262.197 124.573C268.648 129.586 278.087 134.442 283.511 140.42C284.668 141.691 284.966 143.815 287.717 143.875L288.651 141.556C289.534 160.738 284.426 186.236 276.288 203.655C275.847 204.601 272.654 210.811 272.291 211.024C271.841 211.284 270.883 211.205 270.386 211.033C269.624 210.769 265.738 206.062 264.711 205.092C256.378 197.245 247.278 189.825 239.943 181.111C240.729 166.91 227.055 166.02 217.769 172.554L203.343 158.702L203.306 157.774C204.937 155.608 206.29 153.192 207.493 150.776C243.132 79.2025 165.223 6.81294 96.2978 47.7034C84.6367 54.6228 72.3762 68.3457 66.5666 80.6448C67.6309 78.2379 64.9306 75.177 62.6021 74.4396C56.0535 63.9863 49.8628 53.4448 44.0253 42.8153L42.7891 42.7735Z" fill="#FE5500"/>
<path d="M204.064 14.0199C214.837 18.8709 223.171 23.6153 232.531 30.8315C260.385 52.3179 284.566 89.9758 287.662 126.076C288.085 130.964 288.429 136.719 288.652 141.556C287.936 141.505 287.346 141.932 286.886 142.831C283.744 139.121 280.095 135.801 275.936 132.856C236.263 108.494 208.712 65.1781 203.065 19.8355C204.134 18.69 204.58 17.6883 203.055 16.835C202.874 15.6663 203.209 14.7295 204.064 14.0199Z" fill="#FE4500"/>
<path d="M288.652 141.556L287.718 143.875C284.966 143.815 284.669 141.691 283.511 140.42C278.088 134.442 268.648 129.586 262.197 124.573C236.825 104.867 215.795 74.639 207.076 43.7057C206.035 40.0141 201.652 21.5144 202.172 18.9497C202.275 18.4442 203.372 19.0332 203.139 17.9619C203.046 17.5353 202.316 17.9063 202.196 17.4286C202.042 16.835 202.149 15.4205 202.2 14.697C202.298 13.3753 203.348 14.2193 204.064 14.0199C203.209 14.7295 202.874 15.6663 203.055 16.835C204.58 17.6883 204.134 18.69 203.065 19.8355C208.712 65.1781 236.263 108.494 275.936 132.856C280.095 135.801 283.744 139.121 286.886 142.831C287.346 141.932 287.936 141.505 288.652 141.556Z" fill="#FE4500"/>
<path d="M108.786 58.5416C108.363 58.6158 107.987 58.7271 107.648 58.857C106.541 59.0703 105.988 58.8106 107.392 57.6141C107.173 58.8524 107.685 58.5602 108.786 58.5416Z" fill="#E4002B"/>
<path d="M106.244 59.5434C104.636 60.4245 103.548 61.5237 102.884 62.3121L102.744 62.2518C103.939 60.7492 103.409 60.5451 101.815 61.3242C103.86 59.8634 105.063 58.8524 107.392 57.6141C105.988 58.8106 106.541 59.0703 107.648 58.857C107.136 59.0518 106.695 59.2976 106.244 59.5434Z" fill="#E4002B"/>
<path d="M81.3649 91.0054C80.2077 91.228 79.8219 89.6326 79.5059 88.6866C84.6555 76.4477 90.9484 68.9068 101.815 61.3242C102.8 61.2129 102.856 61.2639 102.744 62.2518L102.87 62.3306C102.87 62.3306 102.856 62.3445 102.851 62.3538C102.112 63.2535 101.299 64.2413 100.904 65.7486C100.783 66.217 99.9603 69.3938 101.773 71.1469C102.795 72.1393 104.538 72.4037 107.053 71.8842C112.49 70.7666 116.343 62.3074 113.336 59.3718C112.3 58.3608 110.06 58.3144 108.786 58.5416C107.685 58.5602 107.173 58.8524 107.392 57.6141C171.126 23.0124 234.064 106.764 182.219 157.788C181.239 157.927 180.797 157.848 179.914 157.449C175.759 155.59 171.144 151.699 167.468 149.454C150.434 139.07 133.089 129.02 116.506 118.085C107.592 112.214 98.473 106.597 90.6603 99.3532C93.8997 92.1787 99.8487 80.2645 99.0261 72.6773C98.4591 67.4506 92.7099 71.4854 90.651 73.7347C86.5424 78.2239 83.2891 85.3289 81.3649 91.0054Z" fill="#E4002B"/>
<path d="M167.469 149.454C171.145 151.699 175.76 155.59 179.915 157.449C180.798 157.848 181.24 157.927 182.22 157.788C181.574 158.233 180.924 158.502 180.268 158.586C152.819 142.335 125.607 125.18 98.6271 107.112C95.1414 105.025 92.4829 102.437 90.661 99.3532C98.4738 106.597 107.593 112.214 116.507 118.085C133.09 129.02 150.435 139.07 167.469 149.454Z" fill="#FD803F"/>
<path d="M79.5066 88.6866C79 90.3654 79.7483 92.9161 81.3657 91.0054C79.2231 97.3034 76.4345 107.386 77.6568 113.948C78.1588 116.633 81.705 116.619 83.2341 114.769C85.6834 109.644 88.3232 104.524 90.661 99.3532C92.4829 102.437 95.1414 105.025 98.6271 107.112C125.607 125.18 152.819 142.335 180.268 158.586C180.924 158.502 181.574 158.233 182.22 157.788C132.839 206.382 52.8801 151.968 79.5066 88.6866ZM87.1335 147.414C89.1134 150.089 93.2916 149.51 92.4039 145.637C91.7579 142.813 89.2156 137.637 88.0119 134.674C87.5425 133.51 87.1428 131.78 86.5804 130.56C86.2876 129.929 84.4889 126.498 84.1357 126.27C82.8762 125.459 82.2627 130.171 82.2813 131.098C82.3557 135.003 84.7817 144.237 87.1335 147.414Z" fill="#FD803F"/>
<path d="M145.712 234.95C135.52 232.362 125.75 229.273 116.404 225.684L116.636 225.076C116.947 225.192 117.236 225.299 117.501 225.378C128.613 228.814 140.53 232.288 152.223 236.035L152.01 236.707C149.965 236.053 147.864 235.469 145.712 234.95Z" fill="#E4002B"/>
<path d="M215.399 270.516C215.664 270.34 215.966 270.15 216.287 269.941C216.027 270.131 215.72 270.326 215.399 270.516Z" fill="#E4002B"/>
<path d="M201.703 256.617C203.929 257.883 208.172 260.313 209.348 261.171C210.37 261.918 209.938 262.015 211.37 262.725C212.852 264.71 216.956 266.282 217.077 269.092C217.086 269.292 216.78 269.589 216.329 269.913L216.287 269.941C215.966 270.15 215.664 270.34 215.399 270.516C213.587 268.568 213.233 265.345 210.993 263.699C209.71 263.68 208.748 263.119 208.707 261.811C206.29 260.309 203.803 258.829 201.261 257.387L201.703 256.617Z" fill="#E4002B"/>
<path d="M201.261 257.387C189.953 250.987 177.474 245.366 164.758 242.032C160.766 239.926 156.513 238.15 152.01 236.707L152.223 236.035C154.961 236.911 157.684 237.802 160.385 238.711C161.602 239.119 164.651 240.167 165.767 240.45C177.321 243.372 190.023 249.967 200.889 256.153C201.108 256.278 201.386 256.436 201.703 256.617L201.261 257.387Z" fill="#E4002B"/>
<path d="M210.993 263.699C213.233 265.345 213.587 268.568 215.399 270.516C214.326 271.161 213.108 271.764 212.983 271.829C185.264 285.885 156.044 291.715 124.477 287.518C79.7896 281.577 40.4981 254.706 18.4681 215.198C10.8692 201.572 6.4446 190.094 3.28418 174.484C4.81327 174.688 6.29588 175.267 7.72271 176.218C37.756 193.211 68.3238 209.164 101.081 219.924C103.618 222.001 106.425 222.998 109.498 222.91C111.775 223.866 114.075 224.789 116.404 225.684C125.75 229.273 135.52 232.362 145.712 234.95C147.864 235.469 149.965 236.053 152.01 236.707C156.513 238.15 160.766 239.926 164.758 242.032C177.474 245.366 189.953 250.987 201.261 257.387C203.803 258.829 206.29 260.309 208.707 261.811C208.748 263.119 209.71 263.68 210.993 263.699Z" fill="#E4002B"/>
<path d="M4.57624 173.538C22.5163 182.753 39.88 193.498 58.6473 202.018C66.3113 205.496 73.2085 208.496 80.8028 211.455C87.3002 213.987 94.3275 216.394 101.429 219.061C102.591 219.497 105.779 220.758 106.044 220.823C107.002 221.051 108.159 221.468 109.358 221.913C111.264 222.609 114.461 224.241 116.636 225.076L116.404 225.684C114.075 224.789 111.775 223.866 109.498 222.91C106.425 222.998 103.618 222.001 101.081 219.924C68.3238 209.164 37.756 193.211 7.72271 176.218C6.29588 175.267 4.81327 174.688 3.28418 174.484L4.19977 172.643C4.15794 173.078 4.13471 173.31 4.57624 173.538Z" fill="#E4002B"/>
<path d="M44.0258 42.8153C49.8633 53.4448 56.054 63.9863 62.6026 74.4396C64.9311 75.177 67.6313 78.2379 66.567 80.6448C66.5438 80.6958 66.5159 80.7515 66.4927 80.8025C66.8691 79.4947 66.1906 79.3138 65.7258 78.6089C65.3679 78.0616 64.5174 76.7631 64.1874 76.3828C63.3369 75.4089 62.4817 74.959 62.3888 74.8338C62.3098 74.7364 61.436 73.8321 60.9573 73.0112C56.3747 65.1874 51.0624 57.7625 46.5774 49.8877C45.2528 47.555 44.7322 44.944 42.7895 42.7735L44.0258 42.8153Z" fill="#F94604"/>
<path d="M5.27813 105.285C12.0637 81.1689 24.8867 60.624 42.7895 42.7735C44.7322 44.944 45.2528 47.555 46.5774 49.8877C51.0624 57.7625 56.3747 65.1874 60.9573 73.0112C61.436 73.8321 62.3098 74.7364 62.3888 74.8338C62.4817 74.959 63.3369 75.4089 64.1874 76.3828C64.5174 76.7631 65.3679 78.0616 65.7258 78.6089C66.1906 79.3138 66.8691 79.4947 66.4927 80.8025C34.275 149.575 106.365 217.892 174.691 183.801C176.21 183.045 179.19 181.232 180.477 181.909L194.708 195.687C193.188 201.211 190.534 206.808 193.002 212.647C194.025 215.063 197.046 217.688 199.676 218.045C201.675 218.319 205.258 217.591 206.843 218.319C209.232 219.414 217.802 228.007 220.335 230.358C227.172 236.703 233.53 243.446 240.302 249.874C240.776 250.319 241.78 251.107 241.213 251.669C238.573 254.303 233.823 258.3 230.839 260.55C229.361 261.663 226.754 263.281 225.076 264.427C222.882 265.916 218.867 268.304 216.329 269.913C216.78 269.589 217.087 269.292 217.077 269.092C216.957 266.282 212.853 264.71 211.37 262.725C209.939 262.015 210.371 261.918 209.348 261.171C208.172 260.313 203.929 257.883 201.703 256.617C201.387 256.436 201.108 256.278 200.89 256.153C190.023 249.967 177.321 243.372 165.767 240.45C164.652 240.167 161.603 239.119 160.385 238.711C157.685 237.802 154.961 236.912 152.224 236.035C140.53 232.288 128.614 228.814 117.501 225.378C117.236 225.299 116.948 225.192 116.636 225.076C114.461 224.241 111.264 222.609 109.358 221.913C108.159 221.468 107.002 221.051 106.044 220.823C105.779 220.758 102.591 219.497 101.429 219.061C94.3276 216.394 87.3003 213.987 80.8029 211.455C73.2086 208.496 66.3114 205.496 58.6474 202.018C39.8801 193.498 22.5164 182.753 4.57634 173.538C4.13481 173.31 4.15804 173.078 4.19987 172.642L3.28428 174.484C-1.461 151.059 -1.28903 128.64 5.27813 105.285Z" fill="#F94604"/>
<path d="M142.71 338.653C141.952 338.996 141.195 338.658 140.623 338.658H132.257C131.179 338.658 129.301 340.457 129.705 337.767C129.887 337.707 130.11 337.762 130.338 337.693C130.449 337.656 130.57 337.623 130.672 337.456C131.021 336.877 131.481 334.576 131.555 333.783C132.29 325.825 132.299 309.742 131.555 301.793C131.486 301.037 130.932 298.352 130.528 297.948C129.687 297.113 126.596 297.735 126.912 295.991H145.968C146.195 297.308 145.656 296.751 144.945 297.034C144.327 297.28 141.971 297.809 141.868 297.929C141.687 298.129 140.92 302.488 140.86 303.184C140.205 311.156 140.274 324.392 140.837 332.415C140.892 333.25 141.143 335.226 141.441 336.571C140.823 336.362 140.237 336.186 139.661 336.158C139.731 336.302 140.888 337.127 141.762 337.684C141.771 337.702 141.776 337.716 141.785 337.73C141.813 337.735 141.836 337.744 141.864 337.749C142.282 338.013 142.617 338.198 142.71 338.203V338.653Z" fill="#E4002B"/>
<path d="M141.762 337.684C140.888 337.127 139.731 336.302 139.661 336.158C140.237 336.186 140.823 336.362 141.441 336.571C141.543 337.044 141.655 337.442 141.762 337.684Z" fill="#E4002B"/>
<path d="M149.751 339.135C152.995 339.126 156.225 339.274 159.446 339.585C149.788 339.863 140.07 339.46 130.394 339.534V339.404C131.146 339.404 131.951 339.177 132.257 338.658C134.381 339.279 137.974 339.251 140.479 339.117C140.535 339.117 140.581 338.913 140.623 338.658C142.245 340.132 145.359 338.569 141.864 337.749C141.831 337.73 141.794 337.707 141.762 337.684C141.655 337.443 141.543 337.044 141.441 336.571C142.454 336.914 143.565 337.34 144.941 337.373C145.633 337.507 147.093 337.535 148.905 337.67C149.621 337.721 150.216 337.73 150.616 337.73C149.454 338.185 149.166 338.653 149.751 339.135Z" fill="#E4002B"/>
<path d="M247.752 307.121C248.765 307.4 248.784 307.757 247.752 308.049V307.121Z" fill="#E4002B"/>
<path d="M247.752 307.121C249.974 307.367 251.735 309.037 253.548 308.995C255.002 308.967 253.905 307.474 254.259 307.117C254.324 307.052 256.043 307.056 256.113 307.117C256.499 307.488 255.1 316.323 255.648 317.788H254.259C254.254 314.036 251.814 308.837 247.752 308.049C248.784 307.757 248.765 307.4 247.752 307.121Z" fill="#E4002B"/>
<path d="M247.752 308.049C245.502 307.608 242.481 309.162 242.184 311.569C241.371 318.113 256.085 321.605 257.057 329.6C257.675 334.706 254.789 339.808 249.611 340.35C249.086 340.448 247.668 340.582 246.943 340.61C246.841 340.615 246.739 340.615 246.632 340.61C247.752 340.54 248.788 340.239 249.611 339.585C248.844 339.664 246.799 339.747 246.195 339.59C245.707 339.465 245.93 338.685 245.893 338.658C245.865 338.639 245.809 338.63 245.735 338.634C245.777 338.63 245.823 338.62 245.87 338.611C246.571 338.314 247.078 337.827 247.385 337.136C251.433 327.949 233.883 325.162 234.246 315.233C234.511 307.812 241.603 306.44 247.752 307.121V308.049Z" fill="#E4002B"/>
<path d="M246.632 340.61C245.131 340.573 243.588 339.836 244.657 338.797C244.704 338.746 244.806 338.732 244.964 338.736C245.14 338.736 245.378 338.699 245.717 338.639C245.717 338.634 245.731 338.634 245.735 338.634C245.81 338.63 245.866 338.639 245.893 338.658C245.931 338.685 245.708 339.465 246.196 339.59C246.8 339.747 248.845 339.664 249.612 339.585C248.789 340.239 247.752 340.54 246.632 340.61Z" fill="#E4002B"/>
<path d="M244.656 338.797C243.587 339.836 245.13 340.573 246.632 340.61C244.47 340.758 242.007 340.058 240.236 339.432C238.898 338.959 236.955 337.025 235.886 338.185C235.091 339.047 235.756 340.527 233.809 340.049V328.687C233.809 327.87 235.129 326.989 235.663 327.522C235.77 327.629 235.579 329.41 235.705 330.036C236.225 332.67 237.476 337.498 241.501 338.63C242.081 338.792 243.485 338.811 244.554 338.755C245.056 338.727 245.479 338.644 245.716 338.639C245.377 338.699 245.14 338.736 244.963 338.736C244.805 338.732 244.703 338.746 244.656 338.797Z" fill="#E4002B"/>
<path d="M216.148 337.73C216.232 337.795 216.213 338.913 216.803 339.01C220.968 338.356 225.592 338.361 229.626 339.585C225.267 338.927 220.851 339.038 216.473 339.265C215.167 339.117 215.023 338.412 216.148 337.73Z" fill="#E4002B"/>
<path d="M216.148 337.73C215.023 338.412 215.167 339.117 216.473 339.265C220.851 339.038 225.267 338.927 229.626 339.585H213.819C213.141 338.871 214.094 338.588 214.953 338.268C215.353 338.12 215.706 337.883 215.929 337.776C216.032 337.725 216.111 337.702 216.148 337.73Z" fill="#E4002B"/>
<path d="M209.641 310.831C209.669 310.53 209.599 310.196 209.641 309.904L210.375 308.689C212.573 306.843 218.959 306.815 220.921 307.223C223.212 307.701 224.801 309.417 225.387 311.583C227.469 319.291 225.833 328.589 226.382 336.561C226.907 339.321 231.238 337.98 229.626 339.585C225.592 338.361 220.967 338.356 216.803 339.01C216.213 338.913 216.231 337.795 216.147 337.73C216.696 337.09 217.017 336.538 217.096 335.666C217.793 328.241 216.617 319.638 216.975 312.088C216.24 308.777 211.732 309.134 209.641 310.831Z" fill="#E4002B"/>
<path d="M210.375 308.689L209.641 309.904C209.706 309.431 209.971 309.032 210.375 308.689Z" fill="#E4002B"/>
<path d="M209.641 309.904C209.599 310.196 209.669 310.53 209.641 310.831C209.018 310.961 209.018 310.651 209.641 309.904Z" fill="#E4002B"/>
<path d="M209.642 339.585C206.03 337.832 201.55 338.982 197.785 339.14C196.27 339.2 196.595 339.08 196.628 337.73C198.022 337.262 198.324 336.329 198.496 334.725C199.036 329.818 198.984 318.331 198.487 313.378C198.125 309.769 197.004 310.006 194.313 308.281C194.89 307.381 195.052 307.775 195.694 307.803C199.946 307.984 203.112 307.817 207.318 307.117V311.754L208.679 310.145C208.717 310.103 208.754 310.066 208.796 310.029L210.376 308.689C209.971 309.032 209.707 309.431 209.642 309.904C209.019 310.651 209.019 310.961 209.642 310.831C208.819 311.495 207.513 314.166 207.355 315.274C206.741 319.606 207.011 329.197 207.294 333.807C207.471 336.659 207.364 338.185 210.566 338.662C210.706 339.891 210.525 339.502 209.642 339.585Z" fill="#E4002B"/>
<path d="M209.641 339.585C205.704 339.191 201.754 339.07 197.789 339.223V339.14C201.549 338.982 206.029 337.832 209.641 339.585Z" fill="#E4002B"/>
<path d="M196.628 337.73C196.595 339.08 196.27 339.2 197.785 339.14V339.223C197.362 339.237 196.93 339.256 196.502 339.279C195.261 339.191 195.373 338.212 196.391 337.804C196.47 337.781 196.549 337.758 196.628 337.73Z" fill="#E4002B"/>
<path d="M204.185 339.608C202.145 339.557 200.072 339.585 198.045 339.585C196.776 339.58 195.526 339.502 194.299 339.58C193.9 337.79 195.01 338.175 196.391 337.804C195.373 338.212 195.261 339.191 196.502 339.279C196.93 339.256 197.362 339.237 197.79 339.223C201.754 339.07 205.705 339.191 209.641 339.585C207.838 339.585 206.044 339.655 204.185 339.608Z" fill="#E4002B"/>
<path d="M183.15 320.571C181.03 320.019 181.774 319.444 183.614 319.179C183.503 319.56 182.095 319.485 183.15 320.571Z" fill="#E4002B"/>
<path d="M183.614 319.179C184.358 316.568 182.769 308.146 179.115 308.146L179.102 306.931C187.268 306.852 191.692 311.458 191.051 320.571C188.425 320.585 185.776 320.547 183.15 320.571C182.095 319.485 183.503 319.56 183.614 319.179Z" fill="#E4002B"/>
<path d="M173.854 319.179C174.454 321.048 173.599 319.597 173.38 320.404C173.125 321.345 173.31 326.525 173.622 327.541C173.71 327.829 174.231 327.926 174.31 327.982C174.314 327.982 174.319 327.982 174.319 327.991C176.099 333.204 178.409 336.765 184.786 334.957C187.291 334.247 187.653 332.823 189.308 331.548C192.603 329.011 190.037 333.7 189.117 335.1C185.687 340.336 178.163 341.769 172.502 339.307C160.539 334.094 161.984 308.823 176.397 307.107C177.335 306.996 178.242 306.936 179.102 306.931L179.115 308.146C178.46 308.146 177.735 308.42 176.945 309.051C175.077 310.539 173.194 317.134 173.854 319.179Z" fill="#E4002B"/>
<path d="M174.309 327.982C173.626 326.994 173.175 321.197 173.789 320.598C175.313 320.2 175.425 319.402 173.854 319.179H183.614C181.773 319.444 181.03 320.019 183.149 320.571C181.62 320.58 174.969 320.297 174.286 320.77C173.031 321.647 174.449 326.507 174.318 327.991C174.318 327.986 174.314 327.986 174.309 327.982Z" fill="#E4002B"/>
<path d="M173.789 320.598C173.175 321.197 173.626 326.994 174.309 327.982C174.23 327.926 173.71 327.829 173.622 327.541C173.31 326.525 173.124 321.345 173.38 320.404C173.598 319.597 174.454 321.048 173.854 319.179C175.425 319.402 175.313 320.2 173.789 320.598Z" fill="#E4002B"/>
<path d="M160.134 324.285C161.138 324.712 160.543 325.403 160.539 326.025C160.487 330.593 160.506 335.026 160.841 339.585C160.376 339.604 159.911 339.571 159.446 339.585C156.89 338.569 154.037 338.996 151.318 338.644C150.709 338.56 150.267 338.732 150.184 338.616C150.049 338.426 150.351 338.031 150.616 337.73C151.206 337.577 151.643 337.391 151.88 337.285C156.848 335.036 159.209 327.713 159.223 325.672C159.223 325.505 159.233 324.457 159.665 324.248C159.776 324.193 159.93 324.197 160.134 324.285Z" fill="#E4002B"/>
<path d="M159.446 339.585C156.226 339.274 152.995 339.126 149.751 339.135C149.166 338.653 149.454 338.185 150.616 337.73C150.351 338.031 150.049 338.426 150.184 338.616C150.267 338.732 150.709 338.56 151.318 338.644C154.037 338.996 156.89 338.569 159.446 339.585Z" fill="#E4002B"/>
<path d="M141.864 337.749C145.359 338.569 142.245 340.132 140.623 338.658C141.195 338.658 141.952 338.996 142.71 338.653V338.203C142.617 338.198 142.282 338.013 141.864 337.749Z" fill="#E4002B"/>
<path d="M132.257 338.658H140.623C140.581 338.913 140.534 339.117 140.479 339.117C137.973 339.251 134.381 339.279 132.257 338.658Z" fill="#E4002B"/>
<path d="M129.706 337.767C127.977 338.75 129.111 339.404 130.393 339.404V339.534C129.231 339.539 128.07 339.557 126.908 339.58C126.42 337.623 128.088 338.305 129.706 337.767Z" fill="#E4002B"/>
<path d="M129.706 337.767C129.302 340.457 131.179 338.658 132.258 338.658C131.951 339.177 131.147 339.404 130.394 339.404C129.111 339.404 127.977 338.75 129.706 337.767Z" fill="#E4002B"/>
<path d="M124.124 333.783C125.026 334.641 123.72 336.654 123.199 337.405C123.153 337.475 123.143 337.494 123.088 337.563C123.023 337.651 122.985 337.693 122.883 337.8C122.883 337.8 121.991 338.63 121.828 338.736C122.335 338.328 122.232 337.851 122.256 337.749C122.265 337.735 122.265 337.73 122.265 337.73C123.585 336.696 122.916 335.448 121.577 336.58C122.274 335.791 123.552 333.477 124.124 333.783Z" fill="#E4002B"/>
<path d="M121.577 336.58C122.915 335.448 123.584 336.696 122.264 337.73C122.376 336.742 122.32 336.691 121.335 336.802C121.405 336.761 121.484 336.682 121.577 336.58Z" fill="#E4002B"/>
<path d="M122.256 337.749C122.232 337.851 122.335 338.328 121.828 338.736C121.819 338.741 121.809 338.746 121.805 338.746C121.679 338.755 122.195 337.865 122.256 337.749Z" fill="#E4002B"/>
<path d="M121.335 336.802C121.419 336.719 121.498 336.645 121.577 336.58C121.484 336.682 121.405 336.761 121.335 336.802Z" fill="#E4002B"/>
<path d="M106.974 307.608C107.369 307.618 107.685 307.613 107.857 307.585V299.701C110.915 299.771 113.852 298.811 116.687 297.846V307.585H124.124V308.976H116.687V335.179C116.687 336.881 119.82 337.693 121.335 336.802C122.32 336.691 122.376 336.742 122.264 337.73C122.264 337.73 122.264 337.735 122.255 337.749C122.195 337.865 121.679 338.755 121.804 338.746C121.809 338.746 121.818 338.741 121.828 338.736C121.79 338.764 121.749 338.792 121.707 338.82C117.501 341.561 110.32 341.083 108.54 335.884C108.433 335.56 107.857 333.014 107.857 332.86V308.976C107.564 308.962 107.276 308.963 106.983 308.963L106.974 307.608Z" fill="#E4002B"/>
<path d="M106.974 307.608L106.983 308.963C105.798 308.963 104.604 309.041 103.428 308.981C102.466 308.93 102.582 308.712 102.74 307.817C102.814 307.4 105.468 307.585 106.974 307.608Z" fill="#E4002B"/>
<path d="M93.9136 338.194V339.585H75.3229C74.6583 337.289 77.2563 338.551 78.4508 337.605C79.0689 337.123 79.4501 335.119 79.5291 334.275C79.9799 329.313 80.0682 317.793 79.464 312.96C79.0411 309.565 77.7537 309.973 75.3322 308.281C75.9085 307.381 76.0712 307.775 76.7126 307.803C78.8691 307.896 81.0489 308.248 83.224 308.049L82.9869 310.831C84.1396 310.321 84.0513 308.174 84.1535 308.054C84.1582 308.049 84.1628 308.044 84.1721 308.04C84.4509 307.905 86.798 308.146 87.4069 308.054C83.0009 311.815 86.2821 310.233 86.9375 311.996C87.1838 312.663 85.2875 312.909 86.0126 314.537L88.8012 313.614C87.9274 316.142 87.9878 331.951 88.4619 335.073C88.8709 337.749 91.5805 338.194 93.9136 338.194Z" fill="#E4002B"/>
<path d="M84.1631 308.016C85.7526 307.386 90.0935 306.95 86.3893 310.252L87.5884 311.263C87.3374 312.524 87.7372 313.308 88.8015 313.614L86.0129 314.537C85.2878 312.909 87.1841 312.663 86.9377 311.996C86.2824 310.233 83.0012 311.815 87.4072 308.053C86.7983 308.146 84.4512 307.905 84.1724 308.04L84.1631 308.016Z" fill="#E4002B"/>
<path d="M86.3897 310.252C90.0939 306.95 85.7529 307.386 84.1634 308.016C83.9171 308.109 83.7359 308.211 83.6615 308.309C83.6522 308.183 83.5639 308.021 83.2246 308.049C84.0054 307.975 87.6399 306.435 88.3371 307.117L88.5694 312.227C90.7631 308.262 93.4867 306.453 98.297 307.149C103.493 307.9 103.121 316.216 99.6262 317.227C92.9987 319.147 90.7817 313.257 95.3086 308.981C93.5843 307.747 89.3595 311.996 88.8018 313.614C87.7375 313.308 87.3378 312.524 87.5888 311.263L86.3897 310.252Z" fill="#E4002B"/>
<path d="M83.6614 308.309C83.6708 308.392 83.6474 308.458 83.6381 308.448C83.6101 308.406 83.6194 308.355 83.6614 308.309Z" fill="#E4002B"/>
<path d="M83.6612 308.309C83.7356 308.211 83.9168 308.109 84.1632 308.016L84.1725 308.04C84.1725 308.04 84.1585 308.049 84.1539 308.053C84.0516 308.174 84.1399 310.321 82.9873 310.831L83.2243 308.049C83.5636 308.021 83.6519 308.183 83.6612 308.309C83.6194 308.355 83.6101 308.406 83.638 308.448C83.6473 308.457 83.6705 308.392 83.6612 308.309Z" fill="#E4002B"/>
<path d="M72.9993 339.585C67.9891 339.019 62.8953 338.852 57.7085 339.093C57.1229 338.69 57.3785 338.249 58.4893 337.772C58.5265 337.758 58.559 337.744 58.5915 337.73C57.7643 338.982 58.1361 338.611 59.2794 338.658C63.044 338.806 67.2594 338.31 70.9172 338.644C71.7398 338.722 72.516 338.801 72.9993 339.585Z" fill="#E4002B"/>
<path d="M57.7081 339.094C62.8949 338.852 67.9888 339.019 72.999 339.585C67.1383 339.826 61.2032 339.404 55.3378 339.58C55.2309 337.869 57.3828 338.189 58.4889 337.772C57.3782 338.249 57.1225 338.69 57.7081 339.094Z" fill="#E4002B"/>
<path d="M47.9022 304.339C48.0091 305.044 48.4878 305.535 48.8318 306.194C47.8232 306.453 47.5118 305.837 47.9022 304.339Z" fill="#E4002B"/>
<path d="M48.8318 306.194L42.5899 320.974L42.325 321.034C42.985 319.133 42.5063 318.952 41.3955 320.571C43.5613 315.186 45.8015 309.663 47.9023 304.339C47.5118 305.837 47.8232 306.453 48.8318 306.194Z" fill="#E4002B"/>
<path d="M42.5669 321.034C42.5669 321.071 42.5669 321.118 42.5483 321.178C42.4786 321.132 42.4042 321.085 42.3252 321.034L42.5901 320.974L42.5669 321.034Z" fill="#E4002B"/>
<path d="M41.3955 320.571C42.5063 318.952 42.985 319.133 42.325 321.034C42.2879 320.733 42.3529 320.408 42.3204 320.107L41.3955 320.571Z" fill="#E4002B"/>
<path d="M42.3198 321.962C42.8729 322.37 53.1629 321.656 54.8686 321.957C52.8794 316.712 51.4246 311.175 48.8312 306.194C48.4873 305.535 48.0086 305.044 47.9017 304.339C48.3758 303.133 50.4114 296.334 50.7414 296.047C50.9087 295.898 54.8593 295.866 55.2404 296.088L70.4941 334.892C71.1029 335.523 71.6653 337.132 72.1951 337.6C73.0968 338.393 74.3795 337.6 73.924 339.58C73.6173 339.608 73.3059 339.571 72.9992 339.585C72.5158 338.801 71.7396 338.723 70.917 338.644C67.2593 338.31 63.0438 338.806 59.2792 338.658C58.1359 338.611 57.7641 338.982 58.5914 337.73C59.4558 337.336 60.1018 336.696 59.9903 335.68L55.259 322.968L42.1479 322.945C41.553 323.154 40.7954 325.714 40.4654 326.6C39.4755 326.711 39.4243 326.655 39.5359 325.672C40.1819 324.081 40.7164 322.254 41.395 320.571L42.3198 320.107C42.3524 320.408 42.2873 320.733 42.3245 321.034C42.4035 321.085 42.4779 321.132 42.5476 321.178C42.4872 321.452 42.2641 321.916 42.3198 321.962Z" fill="#E4002B"/>
<path d="M39.5358 325.672C38.9828 327.309 39.6241 328.441 40.4654 326.6C39.8379 328.274 39.5451 330.208 38.6063 331.701C39.2663 330.027 39.1454 328.445 37.6768 330.31C38.3228 328.802 38.9363 327.128 39.5358 325.672Z" fill="#E4002B"/>
<path d="M39.5357 325.672C39.4242 326.655 39.4753 326.711 40.4653 326.6C39.6241 328.441 38.9827 327.309 39.5357 325.672Z" fill="#E4002B"/>
<path d="M37.6767 330.31C39.0106 330.092 38.5412 330.634 38.6063 331.701C38.7318 333.853 37.9881 336.413 40.3306 337.633C41.5204 338.254 44.388 337.948 44.1835 339.585H31.6348C31.5651 338.096 33.3776 337.762 34.2049 336.821C35.8456 334.957 36.7147 332.545 37.6767 330.31Z" fill="#E4002B"/>
<path d="M141.831 337.424C141.831 337.424 141.515 337.647 141.515 337.698C141.515 337.749 141.478 337.911 141.645 337.962C141.813 338.013 142.124 338.022 142.166 337.916C142.208 337.809 142.003 337.424 142.003 337.424H141.827H141.831Z" fill="#E4002B"/>
<path d="M37.6768 333.31C39.1454 331.445 39.2663 333.027 38.6063 334.701C38.5412 333.634 39.0106 333.092 37.6768 333.31Z" fill="#E4002B"/>
</svg>
