<svg width="1440" height="1024" viewBox="0 0 1440 1024" fill="none" xmlns="http://www.w3.org/2000/svg">
<path fill-rule="evenodd" clip-rule="evenodd" d="M0 1003.48V1008.67H81.1299V1003.48C68.4747 1003.48 45.1085 997.311 45.1085 969.711V831.712L115.855 986.271H119.101L188.872 823.272V969.061C188.872 997.311 166.804 1003.16 152.851 1003.16V1008.68H335.232L344.969 937.567H341.075C331.664 964.516 305.054 1001.53 264.488 1001.53H228.79V898.602C269.355 899.252 281.362 921.979 287.853 948.93H292.395L279.089 840.805H275.196C273.899 866.456 271.302 890.809 229.114 891.133V791.45H250.207C298.885 791.45 310.891 830.089 313.488 855.741H317.382C320.628 826.843 332.959 790.477 376.769 790.477V1009H452.058V1003.81C435.508 1003.81 415.711 995.039 415.711 970.037V789.503C454.006 789.503 481.589 837.882 487.107 855.741H491L482.888 784.306H223.271C207.045 783.657 192.116 793.399 186.275 808.659L134.027 931.721L76.2617 804.114C71.7172 794.048 58.0873 784.306 39.9148 784.306L39.9166 784.308H0.32549V789.503C16.2267 789.503 36.3469 798.269 36.3469 823.272V969.711C36.3469 994.713 16.5504 1003.48 0 1003.48ZM815.579 1024C812.131 1022.73 808.09 1022 803.358 1022H792.79V1024H775.618C779.304 1020.31 784.439 1018.21 789.863 1018.42H919.936L920.569 1024H897.862C894.287 1022.15 890.407 1021.03 886.279 1021.03V1024H866.768V1021.51C861.863 1021.51 857.745 1022.42 854.289 1024H815.579ZM1440 835.23V994.905H1399.83V990.976C1410.67 990.976 1421.51 987.972 1421.51 967.869V916.801H1361.31V967.176C1361.31 986.818 1371.23 991.208 1382.99 991.208V994.674H1308.02V990.977C1319.79 990.977 1333.86 984.738 1333.86 966.946V880.755C1333.17 856.261 1320.48 838.699 1284.5 838.699V994.675H1231.21V990.979C1242.98 990.979 1257.05 984.74 1257.05 966.947V838.701C1235.13 838.701 1210.22 866.429 1203.53 885.609H1200.53L1207.45 835.004H1383.22V838.697C1371.46 838.697 1361.54 843.088 1361.54 862.729V911.716H1421.74V862.266C1421.74 842.163 1410.9 839.159 1400.06 839.159V835.23H1440ZM124.21 0L146.562 49.3585L167.526 0H175.401L132.913 99.2227H129.944L84.5097 0H124.21ZM65.2499 0V84.0855C65.2499 109.315 86.6174 114.954 98.19 114.954V119.702H24V114.954C39.1347 114.954 57.2378 106.94 57.2378 84.0855V0H65.2499ZM196.716 0V83.4917C196.716 109.315 176.536 114.658 163.776 114.658V119.704H330.557L339.46 54.7025H335.9C327.294 79.3369 302.96 113.174 265.864 113.174H233.22V19.084C270.314 19.6778 281.295 40.4534 287.23 65.0895H291.384L283.371 0H267.123C261.281 7.36769 251.204 12.1206 233.516 12.2564V0H196.716ZM368.541 0H404.151V84.3832C404.151 107.238 422.254 115.251 437.389 115.251V120H368.541V0ZM1440 1023.1V1024H1342.6C1345.2 1023.3 1347.92 1022.98 1350.7 1023.1H1440ZM1228.26 1024H1192.23V1023.1H1220.37L1220.37 1023.1C1223.16 1023.1 1225.81 1023.42 1228.26 1024ZM713.013 1024H689.034C685.715 1021.91 681.728 1021.03 678.163 1021.03V1018.42H697.999L697.998 1018.42C704.385 1018.42 709.652 1020.83 713.013 1024ZM1020.6 193.179C1030.89 193.179 1038.61 198.678 1041.18 204.359L1073.89 276.382L1103.47 206.924C1106.77 198.311 1115.23 192.812 1124.41 193.179H1271.41L1276 233.498H1273.8C1270.67 223.418 1255.05 196.112 1233.37 196.112V298.008C1233.37 312.12 1244.58 317.068 1253.95 317.068V320H1211.32V196.662C1186.52 196.662 1179.54 217.188 1177.7 233.498H1175.49C1174.02 219.02 1167.23 197.211 1139.67 197.211H1127.72V253.474C1151.61 253.291 1153.08 239.546 1153.81 225.068H1156.02L1163.55 286.096H1160.98C1157.3 270.884 1150.51 258.056 1127.54 257.689V315.785H1147.75C1170.72 315.785 1185.79 294.893 1191.11 279.682H1193.32L1187.81 319.817H1084.54V316.701C1092.44 316.701 1104.94 313.403 1104.94 297.458V215.172L1065.43 307.171H1063.6L1023.54 219.936V297.825C1023.54 313.403 1036.77 316.884 1043.94 316.884V319.816H998V316.884C1007.37 316.884 1018.58 311.936 1018.58 297.825V215.172C1018.58 201.06 1007.19 196.112 998.184 196.112V193.18H1020.6L1020.6 193.179ZM1150.32 44.0031V46.932C1140.95 46.932 1133.05 50.4145 1133.05 65.9916V104.844H1181.01V65.625C1181.01 49.6812 1172.37 47.2986 1163.73 47.2986V44.1828H1258.36L1263.87 84.3179H1261.67C1256.34 69.1064 1241.27 48.2147 1218.3 48.2147H1202.87V104.477C1226.94 104.477 1228.41 90.5496 1229.15 76.0713H1231.35L1239.07 137.099H1236.49C1232.64 121.888 1226.02 109.06 1202.87 108.693V166.789H1223.27C1246.23 166.789 1261.3 145.896 1266.63 130.686H1268.83L1263.32 170.821H1163.55V167.705C1172.18 167.705 1180.82 165.322 1180.82 149.379V108.877H1132.86V148.829C1132.86 164.407 1140.76 167.889 1150.14 167.889V170.638H1090.42V167.706C1099.79 167.706 1111 162.758 1111 148.646V80.2881C1110.45 60.8619 1100.34 46.9341 1071.68 46.9341V170.639H1029.23V167.707C1038.61 167.707 1049.81 162.759 1049.81 148.647V46.9351C1032.36 46.9351 1012.51 68.9267 1007.19 84.1382H1004.8L1010.31 44.0031H1150.32ZM507.712 337.714C523.516 337.714 535.369 346.181 539.321 354.929L589.557 465.835L634.995 358.88C640.075 345.616 653.057 337.15 667.169 337.714H892.945L900 399.8H896.614C891.816 384.278 867.828 342.231 834.525 342.231V499.136C834.525 520.866 851.741 528.485 866.134 528.485V533H800.659V343.077C762.559 343.077 751.835 374.684 749.012 399.8H745.626C743.368 377.505 732.927 343.923 690.594 343.923H672.25V430.559C708.939 430.278 711.197 409.112 712.325 386.818H715.711L727.283 480.792H723.332C717.688 457.368 707.245 437.615 671.969 437.051V526.51H703.013C738.291 526.51 761.433 494.338 769.617 470.916H773.003L764.536 532.719H605.927V527.921C618.062 527.921 637.253 522.841 637.253 498.289V371.58L576.576 513.245H573.753L512.229 378.916V498.853C512.229 522.841 532.549 528.202 543.555 528.202V532.717H473V528.202C487.393 528.202 504.609 520.583 504.609 498.853V371.58C504.609 349.85 487.112 342.231 473.283 342.231V337.716H507.714L507.712 337.714ZM706.96 108.005V112.515C692.567 112.515 680.431 117.877 680.431 141.864V201.691H754.09V141.299C754.09 116.748 740.826 113.079 727.561 113.079V108.281H872.904L881.372 170.084H877.986C869.801 146.66 846.66 114.49 811.381 114.49H787.675V201.126C824.645 201.126 826.904 179.68 828.033 157.385H831.419L843.272 251.359H839.321C833.394 227.936 823.235 208.183 787.675 207.618V297.077H819.001C854.279 297.077 877.421 264.905 885.605 241.484H888.991L880.524 303.286H727.278V298.488C740.542 298.488 753.807 294.819 753.807 270.268V207.901H680.148V269.422C680.148 293.41 692.283 298.771 706.677 298.771V303.004H614.956V298.489C629.349 298.489 646.565 290.87 646.565 269.14V163.878C645.719 133.965 630.197 112.518 586.17 112.518V303.006H520.976V298.491C535.369 298.491 552.585 290.872 552.585 269.142V112.52C525.774 112.52 495.294 146.383 487.11 169.807H483.441L491.908 108.005H706.96ZM121.998 310.423C131.103 310.423 137.932 315.304 140.208 320.347L169.15 384.281L195.327 322.625C198.254 314.979 205.733 310.098 213.863 310.423H343.936L348 346.214H346.049C343.285 337.266 329.465 313.027 310.279 313.027V403.478C310.279 416.005 320.197 420.397 328.489 420.397V423H290.768V313.515C268.819 313.515 262.64 331.735 261.014 346.214H259.063C257.762 333.362 251.747 314.003 227.358 314.003H216.79V363.946C237.927 363.784 239.228 351.582 239.878 338.73H241.829L248.495 392.904H246.219C242.968 379.401 236.952 368.014 216.628 367.688V419.259H234.513C254.838 419.259 268.17 400.713 272.885 387.211H274.836L269.958 422.838H178.581V420.072C185.572 420.072 196.628 417.144 196.628 402.99V329.946L161.672 411.612H160.045L124.6 334.175V403.315C124.6 417.144 136.307 420.234 142.648 420.234V422.837H102V420.234C110.292 420.234 120.21 415.842 120.21 403.315V329.946C120.21 317.419 110.13 313.027 102.163 313.027V310.424H121.999L121.998 310.423ZM236.788 178.003V180.603C228.495 180.603 221.504 183.694 221.504 197.522V232.01H263.94V197.196C263.94 183.043 256.298 180.928 248.656 180.928V178.162H332.39L337.268 213.789H335.317C330.602 200.287 317.27 181.741 296.946 181.741H283.288V231.685C304.587 231.685 305.888 219.321 306.539 206.469H308.49L315.318 260.642H313.042C309.628 247.139 303.775 235.752 283.288 235.427V286.997H301.335C321.66 286.997 334.992 268.451 339.707 254.949H341.658L336.78 290.576H248.493V287.811C256.134 287.811 263.777 285.696 263.777 271.543V235.59H221.341V271.055C221.341 284.883 228.331 287.974 236.624 287.974V290.414H183.783V287.812C192.075 287.812 201.993 283.419 201.993 270.893V210.212C201.506 192.968 192.563 180.605 167.198 180.605V290.415H129.64V287.812C137.932 287.812 147.85 283.42 147.85 270.894V180.605C132.404 180.605 114.844 200.127 110.129 213.63H108.015L112.893 178.003H236.788ZM684.208 729.347C681.932 724.304 675.103 719.423 665.998 719.423L665.999 719.424H646.163V722.027C654.13 722.027 664.21 726.419 664.21 738.946V812.315C664.21 824.842 654.292 829.234 646 829.234V831.837H686.648V829.234C680.307 829.234 668.6 826.144 668.6 812.315V743.175L704.045 820.612H705.672L740.628 738.946V811.99C740.628 826.144 729.572 829.072 722.581 829.072V831.838H813.958L818.836 796.211H816.885C812.17 809.713 798.838 828.259 778.513 828.259H760.628V776.688C780.952 777.014 786.968 788.401 790.219 801.904H792.495L785.829 747.73H783.878C783.228 760.582 781.927 772.784 760.79 772.946V723.003H771.358C795.747 723.003 801.762 742.362 803.063 755.214H805.014C806.64 740.735 812.819 722.515 834.768 722.515V832H872.489V829.397C864.197 829.397 854.279 825.005 854.279 812.479V722.027C873.465 722.027 887.285 746.266 890.049 755.214H892L887.936 719.423H757.863C749.733 719.098 742.254 723.979 739.327 731.625L713.15 793.281L684.208 729.347ZM780.788 589.603V587.003H656.893L652.015 622.63H654.129C658.844 609.127 676.404 589.605 691.85 589.605V679.894C691.85 692.42 681.932 696.812 673.64 696.812V699.415H711.198V589.604C736.563 589.604 745.506 601.968 745.993 619.212V679.893C745.993 692.419 736.075 696.812 727.783 696.812V699.414H780.624V696.974C772.331 696.974 765.341 693.883 765.341 680.055V644.59H807.777V680.543C807.777 694.696 800.134 696.811 792.493 696.811V699.577H880.78L885.658 663.949H883.707C878.992 677.451 865.66 695.997 845.335 695.997H827.288V644.427C847.774 644.752 853.628 656.139 857.042 669.642H859.318L852.49 615.469H850.539C849.888 628.321 848.587 640.685 827.288 640.685V590.741H840.946C861.27 590.741 874.602 609.286 879.317 622.789H881.268L876.39 587.162H792.656V589.928C800.298 589.928 807.94 592.043 807.94 606.196V641.01H765.504V606.522C765.504 592.694 772.495 589.603 780.788 589.603ZM812.788 888.603V886.003H688.893L684.015 921.63H686.129C690.844 908.127 708.404 888.605 723.85 888.605V978.894C723.85 991.42 713.932 995.812 705.64 995.812V998.415H743.198V888.604C768.563 888.604 777.506 900.968 777.993 918.212V978.893C777.993 991.419 768.075 995.812 759.783 995.812V998.414H812.624V995.974C804.331 995.974 797.341 992.883 797.341 979.055V943.59H839.777V979.543C839.777 993.696 832.134 995.811 824.493 995.811V998.577H912.78L917.658 962.949H915.707C910.992 976.451 897.66 994.997 877.335 994.997H859.288V943.427C879.774 943.752 885.628 955.139 889.042 968.642H891.318L884.49 914.469H882.539C881.888 927.321 880.587 939.685 859.288 939.685V889.741H872.946C893.27 889.741 906.602 908.286 911.317 921.789H913.268L908.39 886.162H824.656V888.928C832.298 888.928 839.94 891.043 839.94 905.196V940.01H797.504V905.521C797.504 891.694 804.495 888.603 812.788 888.603ZM1076.1 591.419C1089.35 591.419 1099.29 598.512 1102.6 605.84L1144.72 698.74L1182.82 609.148C1187.08 598.039 1197.96 590.947 1209.79 591.419H1399.08L1405 643.425H1402.16C1398.14 630.424 1378.03 595.203 1350.11 595.203V726.634C1350.11 744.836 1364.54 751.218 1376.61 751.218V755H1321.71V595.911C1289.77 595.911 1280.78 622.387 1278.41 643.425H1275.57C1273.68 624.75 1264.92 596.62 1229.43 596.62H1214.05V669.191C1244.81 668.955 1246.71 651.226 1247.65 632.551H1250.49L1260.19 711.268H1256.88C1252.15 691.648 1243.39 675.101 1213.82 674.628V749.564H1239.84C1269.42 749.564 1288.82 722.615 1295.69 702.996H1298.53L1291.43 754.764H1158.45V750.745C1168.62 750.745 1184.71 746.49 1184.71 725.924V619.787L1133.84 738.453H1131.47L1079.89 625.932V726.397C1079.89 746.491 1096.93 750.981 1106.15 750.981V754.763H1047V750.981C1059.07 750.981 1073.5 744.599 1073.5 726.397V619.787C1073.5 601.585 1058.83 595.203 1047.24 595.203V591.421H1076.1L1076.1 591.419ZM1243.15 399.004V402.782C1231.09 402.782 1220.91 407.274 1220.91 427.366V477.48H1282.67V426.893C1282.67 406.328 1271.55 403.255 1260.43 403.255V399.236H1382.28L1389.38 451.004H1386.54C1379.68 431.384 1360.28 404.436 1330.7 404.436H1310.83V477.007C1341.82 477.007 1343.72 459.042 1344.66 440.367H1347.5L1357.44 519.084H1354.13C1349.16 499.464 1340.64 482.918 1310.83 482.445V557.38H1337.09C1366.67 557.38 1386.07 530.431 1392.93 510.812H1395.77L1388.67 562.581H1260.19V558.562C1271.31 558.562 1282.43 555.488 1282.43 534.923V482.682H1220.67V534.215C1220.67 554.308 1230.85 558.799 1242.92 558.799V562.345H1166.02V558.563C1178.08 558.563 1192.52 552.181 1192.52 533.979V445.806C1191.81 420.749 1178.79 402.785 1141.88 402.785V562.346H1087.22V558.564C1099.29 558.564 1113.72 552.182 1113.72 533.98V402.786C1091.25 402.786 1065.69 431.152 1058.83 450.772H1055.75L1062.85 399.004H1243.15ZM269.027 525.195V520.005H21.7423L12.0059 591.114H16.2249C25.6357 564.164 60.6842 525.2 91.5136 525.2V705.408C91.5136 730.41 71.7172 739.177 55.1668 739.177V744.371H130.132V525.198C180.758 525.198 198.607 549.875 199.579 584.293V705.406C199.579 730.408 179.783 739.175 163.233 739.175V744.37H268.702V739.499C252.149 739.499 238.196 733.331 238.196 705.73V634.945H322.896V706.704C322.896 734.952 307.642 739.173 292.39 739.173V744.693H468.605L478.341 673.585H474.448C465.037 700.534 438.426 737.55 397.861 737.55H361.839V634.619C402.729 635.269 414.411 657.997 421.227 684.948H425.77L412.14 576.822H408.246C406.948 602.474 404.351 627.15 361.839 627.15V527.467H389.099C429.665 527.467 456.275 564.482 465.686 591.433H469.58L459.843 520.324H292.715V525.844C307.969 525.844 323.221 530.066 323.221 558.314V627.8H238.521V558.963C238.521 531.365 252.477 525.195 269.027 525.195Z" fill="#E4002B"/>
</svg>
