<svg xmlns="http://www.w3.org/2000/svg" width="16" height="20" viewBox="0 0 16 20" fill="none">
<mask id="path-1-outside-1_187_250" maskUnits="userSpaceOnUse" x="0.654785" y="0.177246" width="15" height="20" fill="black">
<rect fill="#currentColor" x="0.654785" y="0.177246" width="15" height="20"/>
<path d="M8.09569 2.17725C5.08765 2.17725 2.65479 4.61011 2.65479 7.61816C2.65479 11.6988 8.09569 17.7227 8.09569 17.7227C8.09569 17.7227 13.5366 11.6988 13.5366 7.61816C13.5366 4.61011 11.1037 2.17725 8.09569 2.17725ZM8.09569 9.56134C7.58033 9.56134 7.08607 9.35661 6.72166 8.99219C6.35724 8.62778 6.15251 8.13352 6.15251 7.61816C6.15251 7.10279 6.35724 6.60854 6.72166 6.24412C7.08607 5.8797 7.58033 5.67497 8.09569 5.67497C8.61106 5.67497 9.10531 5.8797 9.46973 6.24412C9.83415 6.60854 10.0389 7.10279 10.0389 7.61816C10.0389 8.13352 9.83415 8.62778 9.46973 8.99219C9.10531 9.35661 8.61106 9.56134 8.09569 9.56134V9.56134Z"/>
</mask>
<path d="M8.09569 2.17725C5.08765 2.17725 2.65479 4.61011 2.65479 7.61816C2.65479 11.6988 8.09569 17.7227 8.09569 17.7227C8.09569 17.7227 13.5366 11.6988 13.5366 7.61816C13.5366 4.61011 11.1037 2.17725 8.09569 2.17725ZM8.09569 9.56134C7.58033 9.56134 7.08607 9.35661 6.72166 8.99219C6.35724 8.62778 6.15251 8.13352 6.15251 7.61816C6.15251 7.10279 6.35724 6.60854 6.72166 6.24412C7.08607 5.8797 7.58033 5.67497 8.09569 5.67497C8.61106 5.67497 9.10531 5.8797 9.46973 6.24412C9.83415 6.60854 10.0389 7.10279 10.0389 7.61816C10.0389 8.13352 9.83415 8.62778 9.46973 8.99219C9.10531 9.35661 8.61106 9.56134 8.09569 9.56134V9.56134Z" fill="#currentColor"/>
<path d="M8.09569 2.17725C5.08765 2.17725 2.65479 4.61011 2.65479 7.61816C2.65479 11.6988 8.09569 17.7227 8.09569 17.7227C8.09569 17.7227 13.5366 11.6988 13.5366 7.61816C13.5366 4.61011 11.1037 2.17725 8.09569 2.17725ZM8.09569 9.56134C7.58033 9.56134 7.08607 9.35661 6.72166 8.99219C6.35724 8.62778 6.15251 8.13352 6.15251 7.61816C6.15251 7.10279 6.35724 6.60854 6.72166 6.24412C7.08607 5.8797 7.58033 5.67497 8.09569 5.67497C8.61106 5.67497 9.10531 5.8797 9.46973 6.24412C9.83415 6.60854 10.0389 7.10279 10.0389 7.61816C10.0389 8.13352 9.83415 8.62778 9.46973 8.99219C9.10531 9.35661 8.61106 9.56134 8.09569 9.56134V9.56134Z" stroke="#currentColor" stroke-width="4" stroke-linejoin="round" mask="url(#path-1-outside-1_187_250)"/>
</svg>