<svg xmlns="http://www.w3.org/2000/svg" width="65" height="63" viewBox="-5 -5 73 71" fill="none">
<path d="M43.9948 18.2982L35.5003 4.17296C34.1404 1.91151 30.8621 1.91124 29.5018 4.17247L21.0038 18.2982C20.9349 18.4128 20.823 18.495 20.6931 18.5264L4.79183 22.3766C2.26322 22.9889 1.26279 26.048 2.94105 28.0361L13.6081 40.672C13.693 40.7726 13.7348 40.9027 13.7244 41.034L12.4128 57.5936C12.2055 60.2103 14.8457 62.1155 17.2637 61.0942L32.3066 54.7402C32.431 54.6876 32.5713 54.6876 32.6957 54.7402L47.7345 61.0938C50.1525 62.1154 52.7929 60.2102 52.5856 57.5933L51.274 41.034C51.2636 40.9027 51.3054 40.7726 51.3904 40.672L62.0574 28.0361C63.7357 26.048 62.7352 22.9889 60.2066 22.3766L44.3056 18.5265C44.1756 18.495 44.0637 18.4128 43.9948 18.2982Z" fill="#curentColor" stroke="#currentColor" stroke-width="#currentSize"/>
</svg>