<svg viewBox="0 0 427 425" xmlns="http://www.w3.org/2000/svg">
<path fill-rule="evenodd" clip-rule="evenodd" d="M34.7121 229.714C50.5159 229.714 62.3691 238.181 66.3212 246.929L116.557 357.835L161.995 250.88C167.075 237.616 180.057 229.15 194.169 229.714H419.945L427 291.8H423.614C418.816 276.278 394.828 234.231 361.525 234.231V391.136C361.525 412.866 378.741 420.485 393.134 420.485V425H327.659V235.077C289.559 235.077 278.835 266.684 276.012 291.8H272.626C270.368 269.505 259.927 235.923 217.594 235.923H199.25V322.559C235.939 322.278 238.197 301.112 239.325 278.818H242.711L254.283 372.792H250.332C244.688 349.368 234.245 329.615 198.969 329.051V418.51H230.013C265.291 418.51 288.433 386.338 296.617 362.916H300.003L291.536 424.719H132.927V419.921C145.062 419.921 164.253 414.841 164.253 390.288V263.58L103.576 405.245H100.753L39.2288 270.916V390.853C39.2288 414.841 59.5493 420.202 70.5549 420.202V424.717H0V420.202C14.3931 420.202 31.6092 412.583 31.6092 390.853V263.58C31.6092 241.85 14.1116 234.231 0.283063 234.231V229.716H34.7136L34.7121 229.714ZM233.96 0V4.51486C219.567 4.51486 207.431 9.87736 207.431 33.8639V93.691H281.09V33.2993C281.09 8.74825 267.826 5.07942 254.561 5.07942V0.28149H399.904L408.372 62.0838H404.986C396.801 38.6602 373.66 6.49002 338.381 6.49002H314.675V93.1264C351.645 93.1264 353.904 71.6796 355.033 49.3852H358.419L370.272 143.359H366.321C360.394 119.936 350.235 100.183 314.675 99.618V189.077H346.001C381.279 189.077 404.421 156.905 412.605 133.484H415.991L407.524 195.286H254.278V190.488C267.542 190.488 280.807 186.819 280.807 162.268V99.9011H207.148V161.422C207.148 185.41 219.283 190.771 233.677 190.771V195.004H141.956V190.489C156.349 190.489 173.565 182.87 173.565 161.14V55.8784C172.719 25.9648 157.197 4.51803 113.17 4.51803V195.006H47.976V190.491C62.3691 190.491 79.5852 182.872 79.5852 161.142V4.51961C52.7742 4.51961 22.2942 38.3835 14.11 61.807H10.441L18.9083 0.00474156H233.96V0Z" fill="#currentColor"/>
</svg>
